<?xml version="1.0" encoding="UTF-8" standalone="no"?>
<!-- Created with Inkscape (http://www.inkscape.org/) -->

<svg
   xmlns:dc="http://purl.org/dc/elements/1.1/"
   xmlns:cc="http://creativecommons.org/ns#"
   xmlns:rdf="http://www.w3.org/1999/02/22-rdf-syntax-ns#"
   xmlns:svg="http://www.w3.org/2000/svg"
   xmlns="http://www.w3.org/2000/svg"
   xmlns:xlink="http://www.w3.org/1999/xlink"
   xmlns:sodipodi="http://sodipodi.sourceforge.net/DTD/sodipodi-0.dtd"
   xmlns:inkscape="http://www.inkscape.org/namespaces/inkscape"
   width="256"
   height="256"
   id="svg2"
   sodipodi:version="0.32"
   inkscape:version="0.47 r22583"
   sodipodi:docname="myspace.svg"
   version="1.0"
   inkscape:output_extension="org.inkscape.output.svg.inkscape">
  <title
     id="title2910">facebook web</title>
  <defs
     id="defs4">
    <linearGradient
       inkscape:collect="always"
       id="linearGradient2555">
      <stop
         style="stop-color: rgb(255, 255, 255); stop-opacity: 1;"
         offset="0"
         id="stop2557" />
      <stop
         style="stop-color: rgb(255, 255, 255); stop-opacity: 0;"
         offset="1"
         id="stop2559" />
    </linearGradient>
    <linearGradient
       inkscape:collect="always"
       xlink:href="#linearGradient2555"
       id="linearGradient2449"
       gradientUnits="userSpaceOnUse"
       gradientTransform="matrix(-0.5914584,0,0,0.5914584,210.02161,142.23241)"
       x1="-344.15295"
       y1="274.711"
       x2="-395.84943"
       y2="425.39993" />
  </defs>
  <sodipodi:namedview
     id="base"
     pagecolor="#ffffff"
     bordercolor="#666666"
     borderopacity="1.0"
     inkscape:pageopacity="0.0"
     inkscape:pageshadow="2"
     inkscape:zoom="0.35"
     inkscape:cx="66.630527"
     inkscape:cy="117.27994"
     inkscape:document-units="px"
     inkscape:current-layer="layer1"
     inkscape:window-width="734"
     inkscape:window-height="758"
     inkscape:window-x="1"
     inkscape:window-y="197"
     showgrid="false"
     inkscape:window-maximized="0" />
  <metadata
     id="metadata7">
    <rdf:RDF>
      <cc:Work
         rdf:about="">
        <dc:format>image/svg+xml</dc:format>
        <dc:type
           rdf:resource="http://purl.org/dc/dcmitype/StillImage" />
        <dc:title>facebook web</dc:title>
        <dc:creator>
          <cc:Agent>
            <dc:title>User:ZyMOS</dc:title>
          </cc:Agent>
        </dc:creator>
        <dc:subject>
          <rdf:Bag />
        </dc:subject>
        <cc:license
           rdf:resource="http://creativecommons.org/licenses/publicdomain/" />
        <dc:description />
        <dc:contributor>
          <cc:Agent>
            <dc:title />
          </cc:Agent>
        </dc:contributor>
        <dc:publisher>
          <cc:Agent>
            <dc:title>Open Icon Library</dc:title>
          </cc:Agent>
        </dc:publisher>
      </cc:Work>
      <cc:License
         rdf:about="http://creativecommons.org/licenses/publicdomain/">
        <cc:permits
           rdf:resource="http://creativecommons.org/ns#Reproduction" />
        <cc:permits
           rdf:resource="http://creativecommons.org/ns#Distribution" />
        <cc:permits
           rdf:resource="http://creativecommons.org/ns#DerivativeWorks" />
      </cc:License>
    </rdf:RDF>
  </metadata>
  <g
     inkscape:label="Layer 1"
     inkscape:groupmode="layer"
     id="layer1"
     transform="translate(-373.642,-318.344)">
    <rect
       inkscape:export-ydpi="7.7063322"
       inkscape:export-xdpi="7.7063322"
       inkscape:export-filename="C:\Documents and Settings\Molumen\Desktop\path3511111.png"
       transform="scale(-1,1)"
       ry="35.487503"
       rx="35.487503"
       y="328.34399"
       x="-619.64203"
       height="236"
       width="236"
       id="rect1942"
       style="fill:#0037c1;fill-opacity:1;fill-rule:evenodd;stroke:none;stroke-width:0.875;stroke-linecap:square;stroke-linejoin:miter;stroke-miterlimit:4;stroke-dasharray:0.875, 1.75;stroke-dashoffset:0;stroke-opacity:1" />
    <path
       inkscape:export-ydpi="7.7063322"
       inkscape:export-xdpi="7.7063322"
       inkscape:export-filename="C:\Documents and Settings\Molumen\Desktop\path3511111.png"
       sodipodi:nodetypes="ccccsssc"
       id="path1950"
       d="M 557.29062,338.43314 L 445.99327,338.43314 C 416.53255,338.43314 392.81507,362.34527 392.81507,392.04777 L 392.81507,500.64007 C 393.76867,523.8254 397.43678,509.16812 404.41887,483.49194 C 412.53354,453.65102 438.96056,427.56963 471.144,408.02312 C 495.7086,393.10398 523.20395,383.5772 573.25282,382.6709 C 601.63697,382.15694 599.13112,345.83025 557.29062,338.43314 z"
       style="opacity:0.30042916;fill:url(#linearGradient2449);fill-opacity:1;fill-rule:evenodd;stroke:none;stroke-width:0.875;stroke-linecap:square;stroke-linejoin:miter;stroke-miterlimit:4;stroke-dasharray:0.875, 1.75;stroke-dashoffset:0;stroke-opacity:1" />
    <g
       id="g20839"
       transform="matrix(0.48782536,0,0,0.48782536,286.63812,137.61291)">
      <path
         transform="matrix(1.2524272,0,0,1.2524272,1366.2527,431.70148)"
         d="m -629.32504,55.484718 c 0,28.731431 -22.16077,52.022862 -49.49747,52.022862 -27.3367,0 -49.49747,-23.291431 -49.49747,-52.022862 0,-28.731431 22.16077,-52.0228573 49.49747,-52.0228573 27.3367,0 49.49747,23.2914263 49.49747,52.0228573 z"
         sodipodi:ry="52.022858"
         sodipodi:rx="49.497475"
         sodipodi:cy="55.484718"
         sodipodi:cx="-678.82251"
         id="path20206"
         style="fill:#ffffff;fill-opacity:1;fill-rule:nonzero;stroke:none"
         sodipodi:type="arc" />
      <path
         sodipodi:nodetypes="ccccc"
         id="path20208"
         d="m 429.15482,809.79365 168.69547,0 -1.01015,-172.73609 C 575.75522,558.83467 462.00252,549.28243 428.14466,636.04742 l 1.01016,173.74623 z"
         style="fill:#ffffff;fill-opacity:1;stroke:none" />
      <path
         d="m -629.32504,55.484718 c 0,28.731431 -22.16077,52.022862 -49.49747,52.022862 -27.3367,0 -49.49747,-23.291431 -49.49747,-52.022862 0,-28.731431 22.16077,-52.0228573 49.49747,-52.0228573 27.3367,0 49.49747,23.2914263 49.49747,52.0228573 z"
         sodipodi:ry="52.022858"
         sodipodi:rx="49.497475"
         sodipodi:cy="55.484718"
         sodipodi:cx="-678.82251"
         id="path20206-0"
         style="fill:#ffffff;fill-opacity:1;fill-rule:nonzero;stroke:none"
         sodipodi:type="arc"
         transform="matrix(0.88038414,0,0,0.91107509,996.9135,452.87159)" />
      <path
         sodipodi:nodetypes="ccccc"
         id="path20208-0"
         d="m 339.54502,732.93785 120.02916,0 -0.71874,-127.18866 c -15.00221,-57.59691 -95.93882,-64.6304 -120.02916,-0.74377 l 0.71874,127.93243 z"
         style="fill:#ffffff;fill-opacity:1;stroke:none" />
      <path
         d="m -629.32504,55.484718 c 0,28.731431 -22.16077,52.022862 -49.49747,52.022862 -27.3367,0 -49.49747,-23.291431 -49.49747,-52.022862 0,-28.731431 22.16077,-52.0228573 49.49747,-52.0228573 27.3367,0 49.49747,23.2914263 49.49747,52.0228573 z"
         sodipodi:ry="52.022858"
         sodipodi:rx="49.497475"
         sodipodi:cy="55.484718"
         sodipodi:cx="-678.82251"
         id="path20206-0-5"
         style="fill:#ffffff;fill-opacity:1;fill-rule:nonzero;stroke:none"
         sodipodi:type="arc"
         transform="matrix(0.67450034,0,0,0.7459082,773.06849,457.60284)" />
      <path
         sodipodi:nodetypes="ccccc"
         id="path20208-0-0"
         d="m 275.61651,664.83376 78.2405,0 -0.46851,-88.59608 c -9.77913,-40.1204 -62.53732,-45.01974 -78.2405,-0.51809 l 0.46851,89.11417 z"
         style="fill:#ffffff;fill-opacity:1;stroke:none" />
    </g>
  </g>
</svg>
